%TF.GenerationSoftware,KiCad,Pcbnew,(6.0.2)*%
%TF.CreationDate,2022-06-08T23:24:18-05:00*%
%TF.ProjectId,UnoMiniCube,556e6f4d-696e-4694-9375-62652e6b6963,rev?*%
%TF.SameCoordinates,Original*%
%TF.FileFunction,Soldermask,Top*%
%TF.FilePolarity,Negative*%
%FSLAX46Y46*%
G04 Gerber Fmt 4.6, Leading zero omitted, Abs format (unit mm)*
G04 Created by KiCad (PCBNEW (6.0.2)) date 2022-06-08 23:24:18*
%MOMM*%
%LPD*%
G01*
G04 APERTURE LIST*
%ADD10C,0.300000*%
%ADD11R,1.000000X1.000000*%
%ADD12O,1.000000X1.000000*%
G04 APERTURE END LIST*
D10*
X144458428Y-81435047D02*
X143244142Y-81435047D01*
X143101285Y-81496952D01*
X143029857Y-81558857D01*
X142958428Y-81682666D01*
X142958428Y-81930285D01*
X143029857Y-82054095D01*
X143101285Y-82116000D01*
X143244142Y-82177904D01*
X144458428Y-82177904D01*
X143958428Y-82796952D02*
X142958428Y-82796952D01*
X143815571Y-82796952D02*
X143887000Y-82858857D01*
X143958428Y-82982666D01*
X143958428Y-83168380D01*
X143887000Y-83292190D01*
X143744142Y-83354095D01*
X142958428Y-83354095D01*
X142958428Y-84158857D02*
X143029857Y-84035047D01*
X143101285Y-83973142D01*
X143244142Y-83911238D01*
X143672714Y-83911238D01*
X143815571Y-83973142D01*
X143887000Y-84035047D01*
X143958428Y-84158857D01*
X143958428Y-84344571D01*
X143887000Y-84468380D01*
X143815571Y-84530285D01*
X143672714Y-84592190D01*
X143244142Y-84592190D01*
X143101285Y-84530285D01*
X143029857Y-84468380D01*
X142958428Y-84344571D01*
X142958428Y-84158857D01*
X142958428Y-86139809D02*
X144458428Y-86139809D01*
X143387000Y-86573142D01*
X144458428Y-87006476D01*
X142958428Y-87006476D01*
X142958428Y-87625523D02*
X143958428Y-87625523D01*
X144458428Y-87625523D02*
X144387000Y-87563619D01*
X144315571Y-87625523D01*
X144387000Y-87687428D01*
X144458428Y-87625523D01*
X144315571Y-87625523D01*
X143958428Y-88244571D02*
X142958428Y-88244571D01*
X143815571Y-88244571D02*
X143887000Y-88306476D01*
X143958428Y-88430285D01*
X143958428Y-88616000D01*
X143887000Y-88739809D01*
X143744142Y-88801714D01*
X142958428Y-88801714D01*
X142958428Y-89420761D02*
X143958428Y-89420761D01*
X144458428Y-89420761D02*
X144387000Y-89358857D01*
X144315571Y-89420761D01*
X144387000Y-89482666D01*
X144458428Y-89420761D01*
X144315571Y-89420761D01*
X142958428Y-91649333D02*
X142958428Y-91030285D01*
X144458428Y-91030285D01*
X143744142Y-92082666D02*
X143744142Y-92516000D01*
X142958428Y-92701714D02*
X142958428Y-92082666D01*
X144458428Y-92082666D01*
X144458428Y-92701714D01*
X143101285Y-94992190D02*
X143029857Y-94930285D01*
X142958428Y-94744571D01*
X142958428Y-94620761D01*
X143029857Y-94435047D01*
X143172714Y-94311238D01*
X143315571Y-94249333D01*
X143601285Y-94187428D01*
X143815571Y-94187428D01*
X144101285Y-94249333D01*
X144244142Y-94311238D01*
X144387000Y-94435047D01*
X144458428Y-94620761D01*
X144458428Y-94744571D01*
X144387000Y-94930285D01*
X144315571Y-94992190D01*
X143958428Y-96106476D02*
X142958428Y-96106476D01*
X143958428Y-95549333D02*
X143172714Y-95549333D01*
X143029857Y-95611238D01*
X142958428Y-95735047D01*
X142958428Y-95920761D01*
X143029857Y-96044571D01*
X143101285Y-96106476D01*
X142958428Y-96725523D02*
X144458428Y-96725523D01*
X143887000Y-96725523D02*
X143958428Y-96849333D01*
X143958428Y-97096952D01*
X143887000Y-97220761D01*
X143815571Y-97282666D01*
X143672714Y-97344571D01*
X143244142Y-97344571D01*
X143101285Y-97282666D01*
X143029857Y-97220761D01*
X142958428Y-97096952D01*
X142958428Y-96849333D01*
X143029857Y-96725523D01*
X143029857Y-98396952D02*
X142958428Y-98273142D01*
X142958428Y-98025523D01*
X143029857Y-97901714D01*
X143172714Y-97839809D01*
X143744142Y-97839809D01*
X143887000Y-97901714D01*
X143958428Y-98025523D01*
X143958428Y-98273142D01*
X143887000Y-98396952D01*
X143744142Y-98458857D01*
X143601285Y-98458857D01*
X143458428Y-97839809D01*
D11*
%TO.C,P18*%
X163449000Y-97917000D03*
%TD*%
%TO.C,J1*%
X164851000Y-79502000D03*
D12*
X163581000Y-79502000D03*
X162311000Y-79502000D03*
X161041000Y-79502000D03*
X159771000Y-79502000D03*
X158501000Y-79502000D03*
X157231000Y-79502000D03*
X155961000Y-79502000D03*
%TD*%
D11*
%TO.C,P8*%
X150241000Y-77724000D03*
%TD*%
%TO.C,P13*%
X147447000Y-97917000D03*
%TD*%
%TO.C,J2*%
X153426000Y-79502000D03*
D12*
X152156000Y-79502000D03*
X150886000Y-79502000D03*
X149616000Y-79502000D03*
X148346000Y-79502000D03*
X147076000Y-79502000D03*
X145806000Y-79502000D03*
X144536000Y-79502000D03*
X143266000Y-79502000D03*
X141996000Y-79502000D03*
%TD*%
D11*
%TO.C,P17*%
X158115000Y-92583000D03*
%TD*%
%TO.C,P2*%
X158115000Y-87249000D03*
%TD*%
%TO.C,J4*%
X155834000Y-100330000D03*
D12*
X154564000Y-100330000D03*
X153294000Y-100330000D03*
X152024000Y-100330000D03*
X150754000Y-100330000D03*
X149484000Y-100330000D03*
X148214000Y-100330000D03*
X146944000Y-100330000D03*
%TD*%
D11*
%TO.C,P4*%
X160909000Y-77724000D03*
%TD*%
%TO.C,J3*%
X164592000Y-100330000D03*
D12*
X163322000Y-100330000D03*
X162052000Y-100330000D03*
X160782000Y-100330000D03*
X159512000Y-100330000D03*
X158242000Y-100330000D03*
%TD*%
D11*
%TO.C,P0*%
X163449000Y-87249000D03*
%TD*%
%TO.C,P11*%
X147447000Y-81915000D03*
%TD*%
%TO.C,P6*%
X152781000Y-81915000D03*
%TD*%
%TO.C,P7*%
X155702000Y-77724000D03*
%TD*%
%TO.C,P15*%
X152781000Y-92583000D03*
%TD*%
%TO.C,P12*%
X147447000Y-92583000D03*
%TD*%
%TO.C,P14*%
X152781000Y-97917000D03*
%TD*%
%TO.C,P5*%
X152781000Y-87249000D03*
%TD*%
%TO.C,P1*%
X163449000Y-81915000D03*
%TD*%
%TO.C,P16*%
X158115000Y-97917000D03*
%TD*%
%TO.C,P19*%
X163449000Y-92583000D03*
%TD*%
%TO.C,P3*%
X158115000Y-81915000D03*
%TD*%
%TO.C,P10*%
X147447000Y-87249000D03*
%TD*%
%TO.C,P9*%
X145161000Y-77724000D03*
%TD*%
M02*
