%TF.GenerationSoftware,KiCad,Pcbnew,(6.0.2)*%
%TF.CreationDate,2022-06-08T23:24:18-05:00*%
%TF.ProjectId,UnoMiniCube,556e6f4d-696e-4694-9375-62652e6b6963,rev?*%
%TF.SameCoordinates,Original*%
%TF.FileFunction,Copper,L1,Top*%
%TF.FilePolarity,Positive*%
%FSLAX46Y46*%
G04 Gerber Fmt 4.6, Leading zero omitted, Abs format (unit mm)*
G04 Created by KiCad (PCBNEW (6.0.2)) date 2022-06-08 23:24:18*
%MOMM*%
%LPD*%
G01*
G04 APERTURE LIST*
%ADD10C,0.300000*%
%TA.AperFunction,NonConductor*%
%ADD11C,0.300000*%
%TD*%
%TA.AperFunction,ComponentPad*%
%ADD12R,1.000000X1.000000*%
%TD*%
%TA.AperFunction,ComponentPad*%
%ADD13O,1.000000X1.000000*%
%TD*%
G04 APERTURE END LIST*
D10*
D11*
X144458428Y-81435047D02*
X143244142Y-81435047D01*
X143101285Y-81496952D01*
X143029857Y-81558857D01*
X142958428Y-81682666D01*
X142958428Y-81930285D01*
X143029857Y-82054095D01*
X143101285Y-82116000D01*
X143244142Y-82177904D01*
X144458428Y-82177904D01*
X143958428Y-82796952D02*
X142958428Y-82796952D01*
X143815571Y-82796952D02*
X143887000Y-82858857D01*
X143958428Y-82982666D01*
X143958428Y-83168380D01*
X143887000Y-83292190D01*
X143744142Y-83354095D01*
X142958428Y-83354095D01*
X142958428Y-84158857D02*
X143029857Y-84035047D01*
X143101285Y-83973142D01*
X143244142Y-83911238D01*
X143672714Y-83911238D01*
X143815571Y-83973142D01*
X143887000Y-84035047D01*
X143958428Y-84158857D01*
X143958428Y-84344571D01*
X143887000Y-84468380D01*
X143815571Y-84530285D01*
X143672714Y-84592190D01*
X143244142Y-84592190D01*
X143101285Y-84530285D01*
X143029857Y-84468380D01*
X142958428Y-84344571D01*
X142958428Y-84158857D01*
X142958428Y-86139809D02*
X144458428Y-86139809D01*
X143387000Y-86573142D01*
X144458428Y-87006476D01*
X142958428Y-87006476D01*
X142958428Y-87625523D02*
X143958428Y-87625523D01*
X144458428Y-87625523D02*
X144387000Y-87563619D01*
X144315571Y-87625523D01*
X144387000Y-87687428D01*
X144458428Y-87625523D01*
X144315571Y-87625523D01*
X143958428Y-88244571D02*
X142958428Y-88244571D01*
X143815571Y-88244571D02*
X143887000Y-88306476D01*
X143958428Y-88430285D01*
X143958428Y-88616000D01*
X143887000Y-88739809D01*
X143744142Y-88801714D01*
X142958428Y-88801714D01*
X142958428Y-89420761D02*
X143958428Y-89420761D01*
X144458428Y-89420761D02*
X144387000Y-89358857D01*
X144315571Y-89420761D01*
X144387000Y-89482666D01*
X144458428Y-89420761D01*
X144315571Y-89420761D01*
X142958428Y-91649333D02*
X142958428Y-91030285D01*
X144458428Y-91030285D01*
X143744142Y-92082666D02*
X143744142Y-92516000D01*
X142958428Y-92701714D02*
X142958428Y-92082666D01*
X144458428Y-92082666D01*
X144458428Y-92701714D01*
X143101285Y-94992190D02*
X143029857Y-94930285D01*
X142958428Y-94744571D01*
X142958428Y-94620761D01*
X143029857Y-94435047D01*
X143172714Y-94311238D01*
X143315571Y-94249333D01*
X143601285Y-94187428D01*
X143815571Y-94187428D01*
X144101285Y-94249333D01*
X144244142Y-94311238D01*
X144387000Y-94435047D01*
X144458428Y-94620761D01*
X144458428Y-94744571D01*
X144387000Y-94930285D01*
X144315571Y-94992190D01*
X143958428Y-96106476D02*
X142958428Y-96106476D01*
X143958428Y-95549333D02*
X143172714Y-95549333D01*
X143029857Y-95611238D01*
X142958428Y-95735047D01*
X142958428Y-95920761D01*
X143029857Y-96044571D01*
X143101285Y-96106476D01*
X142958428Y-96725523D02*
X144458428Y-96725523D01*
X143887000Y-96725523D02*
X143958428Y-96849333D01*
X143958428Y-97096952D01*
X143887000Y-97220761D01*
X143815571Y-97282666D01*
X143672714Y-97344571D01*
X143244142Y-97344571D01*
X143101285Y-97282666D01*
X143029857Y-97220761D01*
X142958428Y-97096952D01*
X142958428Y-96849333D01*
X143029857Y-96725523D01*
X143029857Y-98396952D02*
X142958428Y-98273142D01*
X142958428Y-98025523D01*
X143029857Y-97901714D01*
X143172714Y-97839809D01*
X143744142Y-97839809D01*
X143887000Y-97901714D01*
X143958428Y-98025523D01*
X143958428Y-98273142D01*
X143887000Y-98396952D01*
X143744142Y-98458857D01*
X143601285Y-98458857D01*
X143458428Y-97839809D01*
D12*
%TO.P,P18,1,Pin_1*%
%TO.N,Net-(P18-Pad1)*%
X163449000Y-97917000D03*
%TD*%
%TO.P,J1,1,Pin_1*%
%TO.N,/D0*%
X164851000Y-79502000D03*
D13*
%TO.P,J1,2,Pin_2*%
%TO.N,/D1*%
X163581000Y-79502000D03*
%TO.P,J1,3,Pin_3*%
%TO.N,/D2*%
X162311000Y-79502000D03*
%TO.P,J1,4,Pin_4*%
%TO.N,/D3*%
X161041000Y-79502000D03*
%TO.P,J1,5,Pin_5*%
%TO.N,/D4*%
X159771000Y-79502000D03*
%TO.P,J1,6,Pin_6*%
%TO.N,/D5*%
X158501000Y-79502000D03*
%TO.P,J1,7,Pin_7*%
%TO.N,/D6*%
X157231000Y-79502000D03*
%TO.P,J1,8,Pin_8*%
%TO.N,/D7*%
X155961000Y-79502000D03*
%TD*%
D12*
%TO.P,P8,1,Pin_1*%
%TO.N,/D8*%
X150241000Y-77724000D03*
%TD*%
%TO.P,P13,1,Pin_1*%
%TO.N,Net-(P13-Pad1)*%
X147447000Y-97917000D03*
%TD*%
%TO.P,J2,1,Pin_1*%
%TO.N,/D8*%
X153426000Y-79502000D03*
D13*
%TO.P,J2,2,Pin_2*%
%TO.N,/D9*%
X152156000Y-79502000D03*
%TO.P,J2,3,Pin_3*%
%TO.N,/D10*%
X150886000Y-79502000D03*
%TO.P,J2,4,Pin_4*%
%TO.N,/D11*%
X149616000Y-79502000D03*
%TO.P,J2,5,Pin_5*%
%TO.N,/D12*%
X148346000Y-79502000D03*
%TO.P,J2,6,Pin_6*%
%TO.N,/D13*%
X147076000Y-79502000D03*
%TO.P,J2,7,Pin_7*%
%TO.N,/GND*%
X145806000Y-79502000D03*
%TO.P,J2,8,Pin_8*%
%TO.N,/AREF*%
X144536000Y-79502000D03*
%TO.P,J2,9,Pin_9*%
%TO.N,/SDA*%
X143266000Y-79502000D03*
%TO.P,J2,10,Pin_10*%
%TO.N,/SCL*%
X141996000Y-79502000D03*
%TD*%
D12*
%TO.P,P17,1,Pin_1*%
%TO.N,Net-(P17-Pad1)*%
X158115000Y-92583000D03*
%TD*%
%TO.P,P2,1,Pin_1*%
%TO.N,Net-(P2-Pad1)*%
X158115000Y-87249000D03*
%TD*%
%TO.P,J4,1,Pin_1*%
%TO.N,/VIN*%
X155834000Y-100330000D03*
D13*
%TO.P,J4,2,Pin_2*%
%TO.N,/GND*%
X154564000Y-100330000D03*
%TO.P,J4,3,Pin_3*%
X153294000Y-100330000D03*
%TO.P,J4,4,Pin_4*%
%TO.N,/+5*%
X152024000Y-100330000D03*
%TO.P,J4,5,Pin_5*%
%TO.N,/+3*%
X150754000Y-100330000D03*
%TO.P,J4,6,Pin_6*%
%TO.N,/RST*%
X149484000Y-100330000D03*
%TO.P,J4,7,Pin_7*%
%TO.N,/IREF*%
X148214000Y-100330000D03*
%TO.P,J4,8,Pin_8*%
%TO.N,/NC*%
X146944000Y-100330000D03*
%TD*%
D12*
%TO.P,P4,1,Pin_1*%
%TO.N,/D4*%
X160909000Y-77724000D03*
%TD*%
%TO.P,J3,1,Pin_1*%
%TO.N,/A5*%
X164592000Y-100330000D03*
D13*
%TO.P,J3,2,Pin_2*%
%TO.N,/A4*%
X163322000Y-100330000D03*
%TO.P,J3,3,Pin_3*%
%TO.N,/A3*%
X162052000Y-100330000D03*
%TO.P,J3,4,Pin_4*%
%TO.N,/A2*%
X160782000Y-100330000D03*
%TO.P,J3,5,Pin_5*%
%TO.N,/A1*%
X159512000Y-100330000D03*
%TO.P,J3,6,Pin_6*%
%TO.N,/A0*%
X158242000Y-100330000D03*
%TD*%
D12*
%TO.P,P0,1,Pin_1*%
%TO.N,Net-(P0-Pad1)*%
X163449000Y-87249000D03*
%TD*%
%TO.P,P11,1,Pin_1*%
%TO.N,Net-(P11-Pad1)*%
X147447000Y-81915000D03*
%TD*%
%TO.P,P6,1,Pin_1*%
%TO.N,Net-(P6-Pad1)*%
X152781000Y-81915000D03*
%TD*%
%TO.P,P7,1,Pin_1*%
%TO.N,/D7*%
X155702000Y-77724000D03*
%TD*%
%TO.P,P15,1,Pin_1*%
%TO.N,Net-(P15-Pad1)*%
X152781000Y-92583000D03*
%TD*%
%TO.P,P12,1,Pin_1*%
%TO.N,Net-(P12-Pad1)*%
X147447000Y-92583000D03*
%TD*%
%TO.P,P14,1,Pin_1*%
%TO.N,Net-(P14-Pad1)*%
X152781000Y-97917000D03*
%TD*%
%TO.P,P5,1,Pin_1*%
%TO.N,Net-(P5-Pad1)*%
X152781000Y-87249000D03*
%TD*%
%TO.P,P1,1,Pin_1*%
%TO.N,Net-(P1-Pad1)*%
X163449000Y-81915000D03*
%TD*%
%TO.P,P16,1,Pin_1*%
%TO.N,Net-(P16-Pad1)*%
X158115000Y-97917000D03*
%TD*%
%TO.P,P19,1,Pin_1*%
%TO.N,Net-(P19-Pad1)*%
X163449000Y-92583000D03*
%TD*%
%TO.P,P3,1,Pin_1*%
%TO.N,Net-(P3-Pad1)*%
X158115000Y-81915000D03*
%TD*%
%TO.P,P10,1,Pin_1*%
%TO.N,Net-(P10-Pad1)*%
X147447000Y-87249000D03*
%TD*%
%TO.P,P9,1,Pin_1*%
%TO.N,/D9*%
X145161000Y-77724000D03*
%TD*%
%TA.AperFunction,Conductor*%
%TO.N,/GND*%
G36*
X141440572Y-77038203D02*
G01*
X141440611Y-77038209D01*
X144027131Y-77038209D01*
X144095252Y-77058211D01*
X144141745Y-77111867D01*
X144152947Y-77171019D01*
X144152868Y-77172478D01*
X144152500Y-77175866D01*
X144152500Y-78272134D01*
X144159255Y-78334316D01*
X144162027Y-78341712D01*
X144162029Y-78341718D01*
X144191183Y-78419486D01*
X144196366Y-78490293D01*
X144162445Y-78552662D01*
X144131577Y-78575376D01*
X143986574Y-78651183D01*
X143986570Y-78651185D01*
X143981110Y-78654040D01*
X143976309Y-78657900D01*
X143971153Y-78661274D01*
X143969769Y-78659158D01*
X143914365Y-78682027D01*
X143844512Y-78669334D01*
X143834898Y-78663709D01*
X143832675Y-78661870D01*
X143658701Y-78567802D01*
X143469768Y-78509318D01*
X143463643Y-78508674D01*
X143463642Y-78508674D01*
X143279204Y-78489289D01*
X143279202Y-78489289D01*
X143273075Y-78488645D01*
X143190576Y-78496153D01*
X143082251Y-78506011D01*
X143082248Y-78506012D01*
X143076112Y-78506570D01*
X143070206Y-78508308D01*
X143070202Y-78508309D01*
X143004531Y-78527637D01*
X142886381Y-78562410D01*
X142880923Y-78565263D01*
X142880919Y-78565265D01*
X142785135Y-78615340D01*
X142711110Y-78654040D01*
X142706310Y-78657900D01*
X142701153Y-78661274D01*
X142699769Y-78659158D01*
X142644365Y-78682027D01*
X142574512Y-78669334D01*
X142564898Y-78663709D01*
X142562675Y-78661870D01*
X142388701Y-78567802D01*
X142199768Y-78509318D01*
X142193643Y-78508674D01*
X142193642Y-78508674D01*
X142009204Y-78489289D01*
X142009202Y-78489289D01*
X142003075Y-78488645D01*
X141920576Y-78496153D01*
X141812251Y-78506011D01*
X141812248Y-78506012D01*
X141806112Y-78506570D01*
X141800206Y-78508308D01*
X141800202Y-78508309D01*
X141734531Y-78527637D01*
X141616381Y-78562410D01*
X141610923Y-78565263D01*
X141610919Y-78565265D01*
X141520147Y-78612720D01*
X141441110Y-78654040D01*
X141286975Y-78777968D01*
X141159846Y-78929474D01*
X141156879Y-78934872D01*
X141156875Y-78934877D01*
X141078095Y-79078180D01*
X141064567Y-79102787D01*
X141062706Y-79108654D01*
X141062705Y-79108656D01*
X141014891Y-79259386D01*
X141004765Y-79291306D01*
X140982719Y-79487851D01*
X140999268Y-79684934D01*
X141053783Y-79875050D01*
X141144187Y-80050956D01*
X141267035Y-80205953D01*
X141271728Y-80209947D01*
X141271729Y-80209948D01*
X141402051Y-80320860D01*
X141417650Y-80334136D01*
X141590294Y-80430624D01*
X141596154Y-80432528D01*
X141596159Y-80432530D01*
X141609438Y-80436845D01*
X141668043Y-80476919D01*
X141695679Y-80542316D01*
X141696500Y-80556677D01*
X141696500Y-99364476D01*
X145577500Y-99364476D01*
X145577500Y-98465134D01*
X146438500Y-98465134D01*
X146445255Y-98527316D01*
X146496385Y-98663705D01*
X146583739Y-98780261D01*
X146700295Y-98867615D01*
X146836684Y-98918745D01*
X146898866Y-98925500D01*
X147995134Y-98925500D01*
X148057316Y-98918745D01*
X148193705Y-98867615D01*
X148310261Y-98780261D01*
X148397615Y-98663705D01*
X148448745Y-98527316D01*
X148455500Y-98465134D01*
X151772500Y-98465134D01*
X151779255Y-98527316D01*
X151830385Y-98663705D01*
X151917739Y-98780261D01*
X152034295Y-98867615D01*
X152170684Y-98918745D01*
X152232866Y-98925500D01*
X153329134Y-98925500D01*
X153391316Y-98918745D01*
X153527705Y-98867615D01*
X153644261Y-98780261D01*
X153731615Y-98663705D01*
X153782745Y-98527316D01*
X153789500Y-98465134D01*
X157106500Y-98465134D01*
X157113255Y-98527316D01*
X157164385Y-98663705D01*
X157251739Y-98780261D01*
X157368295Y-98867615D01*
X157504684Y-98918745D01*
X157566866Y-98925500D01*
X158663134Y-98925500D01*
X158725316Y-98918745D01*
X158861705Y-98867615D01*
X158978261Y-98780261D01*
X159065615Y-98663705D01*
X159116745Y-98527316D01*
X159123500Y-98465134D01*
X162440500Y-98465134D01*
X162447255Y-98527316D01*
X162498385Y-98663705D01*
X162585739Y-98780261D01*
X162702295Y-98867615D01*
X162838684Y-98918745D01*
X162900866Y-98925500D01*
X163997134Y-98925500D01*
X164059316Y-98918745D01*
X164195705Y-98867615D01*
X164312261Y-98780261D01*
X164399615Y-98663705D01*
X164450745Y-98527316D01*
X164457500Y-98465134D01*
X164457500Y-97368866D01*
X164450745Y-97306684D01*
X164399615Y-97170295D01*
X164312261Y-97053739D01*
X164195705Y-96966385D01*
X164059316Y-96915255D01*
X163997134Y-96908500D01*
X162900866Y-96908500D01*
X162838684Y-96915255D01*
X162702295Y-96966385D01*
X162585739Y-97053739D01*
X162498385Y-97170295D01*
X162447255Y-97306684D01*
X162440500Y-97368866D01*
X162440500Y-98465134D01*
X159123500Y-98465134D01*
X159123500Y-97368866D01*
X159116745Y-97306684D01*
X159065615Y-97170295D01*
X158978261Y-97053739D01*
X158861705Y-96966385D01*
X158725316Y-96915255D01*
X158663134Y-96908500D01*
X157566866Y-96908500D01*
X157504684Y-96915255D01*
X157368295Y-96966385D01*
X157251739Y-97053739D01*
X157164385Y-97170295D01*
X157113255Y-97306684D01*
X157106500Y-97368866D01*
X157106500Y-98465134D01*
X153789500Y-98465134D01*
X153789500Y-97368866D01*
X153782745Y-97306684D01*
X153731615Y-97170295D01*
X153644261Y-97053739D01*
X153527705Y-96966385D01*
X153391316Y-96915255D01*
X153329134Y-96908500D01*
X152232866Y-96908500D01*
X152170684Y-96915255D01*
X152034295Y-96966385D01*
X151917739Y-97053739D01*
X151830385Y-97170295D01*
X151779255Y-97306684D01*
X151772500Y-97368866D01*
X151772500Y-98465134D01*
X148455500Y-98465134D01*
X148455500Y-97368866D01*
X148448745Y-97306684D01*
X148397615Y-97170295D01*
X148310261Y-97053739D01*
X148193705Y-96966385D01*
X148057316Y-96915255D01*
X147995134Y-96908500D01*
X146898866Y-96908500D01*
X146836684Y-96915255D01*
X146700295Y-96966385D01*
X146583739Y-97053739D01*
X146496385Y-97170295D01*
X146445255Y-97306684D01*
X146438500Y-97368866D01*
X146438500Y-98465134D01*
X145577500Y-98465134D01*
X145577500Y-93131134D01*
X146438500Y-93131134D01*
X146445255Y-93193316D01*
X146496385Y-93329705D01*
X146583739Y-93446261D01*
X146700295Y-93533615D01*
X146836684Y-93584745D01*
X146898866Y-93591500D01*
X147995134Y-93591500D01*
X148057316Y-93584745D01*
X148193705Y-93533615D01*
X148310261Y-93446261D01*
X148397615Y-93329705D01*
X148448745Y-93193316D01*
X148455500Y-93131134D01*
X151772500Y-93131134D01*
X151779255Y-93193316D01*
X151830385Y-93329705D01*
X151917739Y-93446261D01*
X152034295Y-93533615D01*
X152170684Y-93584745D01*
X152232866Y-93591500D01*
X153329134Y-93591500D01*
X153391316Y-93584745D01*
X153527705Y-93533615D01*
X153644261Y-93446261D01*
X153731615Y-93329705D01*
X153782745Y-93193316D01*
X153789500Y-93131134D01*
X157106500Y-93131134D01*
X157113255Y-93193316D01*
X157164385Y-93329705D01*
X157251739Y-93446261D01*
X157368295Y-93533615D01*
X157504684Y-93584745D01*
X157566866Y-93591500D01*
X158663134Y-93591500D01*
X158725316Y-93584745D01*
X158861705Y-93533615D01*
X158978261Y-93446261D01*
X159065615Y-93329705D01*
X159116745Y-93193316D01*
X159123500Y-93131134D01*
X162440500Y-93131134D01*
X162447255Y-93193316D01*
X162498385Y-93329705D01*
X162585739Y-93446261D01*
X162702295Y-93533615D01*
X162838684Y-93584745D01*
X162900866Y-93591500D01*
X163997134Y-93591500D01*
X164059316Y-93584745D01*
X164195705Y-93533615D01*
X164312261Y-93446261D01*
X164399615Y-93329705D01*
X164450745Y-93193316D01*
X164457500Y-93131134D01*
X164457500Y-92034866D01*
X164450745Y-91972684D01*
X164399615Y-91836295D01*
X164312261Y-91719739D01*
X164195705Y-91632385D01*
X164059316Y-91581255D01*
X163997134Y-91574500D01*
X162900866Y-91574500D01*
X162838684Y-91581255D01*
X162702295Y-91632385D01*
X162585739Y-91719739D01*
X162498385Y-91836295D01*
X162447255Y-91972684D01*
X162440500Y-92034866D01*
X162440500Y-93131134D01*
X159123500Y-93131134D01*
X159123500Y-92034866D01*
X159116745Y-91972684D01*
X159065615Y-91836295D01*
X158978261Y-91719739D01*
X158861705Y-91632385D01*
X158725316Y-91581255D01*
X158663134Y-91574500D01*
X157566866Y-91574500D01*
X157504684Y-91581255D01*
X157368295Y-91632385D01*
X157251739Y-91719739D01*
X157164385Y-91836295D01*
X157113255Y-91972684D01*
X157106500Y-92034866D01*
X157106500Y-93131134D01*
X153789500Y-93131134D01*
X153789500Y-92034866D01*
X153782745Y-91972684D01*
X153731615Y-91836295D01*
X153644261Y-91719739D01*
X153527705Y-91632385D01*
X153391316Y-91581255D01*
X153329134Y-91574500D01*
X152232866Y-91574500D01*
X152170684Y-91581255D01*
X152034295Y-91632385D01*
X151917739Y-91719739D01*
X151830385Y-91836295D01*
X151779255Y-91972684D01*
X151772500Y-92034866D01*
X151772500Y-93131134D01*
X148455500Y-93131134D01*
X148455500Y-92034866D01*
X148448745Y-91972684D01*
X148397615Y-91836295D01*
X148310261Y-91719739D01*
X148193705Y-91632385D01*
X148057316Y-91581255D01*
X147995134Y-91574500D01*
X146898866Y-91574500D01*
X146836684Y-91581255D01*
X146700295Y-91632385D01*
X146583739Y-91719739D01*
X146496385Y-91836295D01*
X146445255Y-91972684D01*
X146438500Y-92034866D01*
X146438500Y-93131134D01*
X145577500Y-93131134D01*
X145577500Y-87797134D01*
X146438500Y-87797134D01*
X146445255Y-87859316D01*
X146496385Y-87995705D01*
X146583739Y-88112261D01*
X146700295Y-88199615D01*
X146836684Y-88250745D01*
X146898866Y-88257500D01*
X147995134Y-88257500D01*
X148057316Y-88250745D01*
X148193705Y-88199615D01*
X148310261Y-88112261D01*
X148397615Y-87995705D01*
X148448745Y-87859316D01*
X148455500Y-87797134D01*
X151772500Y-87797134D01*
X151779255Y-87859316D01*
X151830385Y-87995705D01*
X151917739Y-88112261D01*
X152034295Y-88199615D01*
X152170684Y-88250745D01*
X152232866Y-88257500D01*
X153329134Y-88257500D01*
X153391316Y-88250745D01*
X153527705Y-88199615D01*
X153644261Y-88112261D01*
X153731615Y-87995705D01*
X153782745Y-87859316D01*
X153789500Y-87797134D01*
X157106500Y-87797134D01*
X157113255Y-87859316D01*
X157164385Y-87995705D01*
X157251739Y-88112261D01*
X157368295Y-88199615D01*
X157504684Y-88250745D01*
X157566866Y-88257500D01*
X158663134Y-88257500D01*
X158725316Y-88250745D01*
X158861705Y-88199615D01*
X158978261Y-88112261D01*
X159065615Y-87995705D01*
X159116745Y-87859316D01*
X159123500Y-87797134D01*
X162440500Y-87797134D01*
X162447255Y-87859316D01*
X162498385Y-87995705D01*
X162585739Y-88112261D01*
X162702295Y-88199615D01*
X162838684Y-88250745D01*
X162900866Y-88257500D01*
X163997134Y-88257500D01*
X164059316Y-88250745D01*
X164195705Y-88199615D01*
X164312261Y-88112261D01*
X164399615Y-87995705D01*
X164450745Y-87859316D01*
X164457500Y-87797134D01*
X164457500Y-86700866D01*
X164450745Y-86638684D01*
X164399615Y-86502295D01*
X164312261Y-86385739D01*
X164195705Y-86298385D01*
X164059316Y-86247255D01*
X163997134Y-86240500D01*
X162900866Y-86240500D01*
X162838684Y-86247255D01*
X162702295Y-86298385D01*
X162585739Y-86385739D01*
X162498385Y-86502295D01*
X162447255Y-86638684D01*
X162440500Y-86700866D01*
X162440500Y-87797134D01*
X159123500Y-87797134D01*
X159123500Y-86700866D01*
X159116745Y-86638684D01*
X159065615Y-86502295D01*
X158978261Y-86385739D01*
X158861705Y-86298385D01*
X158725316Y-86247255D01*
X158663134Y-86240500D01*
X157566866Y-86240500D01*
X157504684Y-86247255D01*
X157368295Y-86298385D01*
X157251739Y-86385739D01*
X157164385Y-86502295D01*
X157113255Y-86638684D01*
X157106500Y-86700866D01*
X157106500Y-87797134D01*
X153789500Y-87797134D01*
X153789500Y-86700866D01*
X153782745Y-86638684D01*
X153731615Y-86502295D01*
X153644261Y-86385739D01*
X153527705Y-86298385D01*
X153391316Y-86247255D01*
X153329134Y-86240500D01*
X152232866Y-86240500D01*
X152170684Y-86247255D01*
X152034295Y-86298385D01*
X151917739Y-86385739D01*
X151830385Y-86502295D01*
X151779255Y-86638684D01*
X151772500Y-86700866D01*
X151772500Y-87797134D01*
X148455500Y-87797134D01*
X148455500Y-86700866D01*
X148448745Y-86638684D01*
X148397615Y-86502295D01*
X148310261Y-86385739D01*
X148193705Y-86298385D01*
X148057316Y-86247255D01*
X147995134Y-86240500D01*
X146898866Y-86240500D01*
X146836684Y-86247255D01*
X146700295Y-86298385D01*
X146583739Y-86385739D01*
X146496385Y-86502295D01*
X146445255Y-86638684D01*
X146438500Y-86700866D01*
X146438500Y-87797134D01*
X145577500Y-87797134D01*
X145577500Y-82463134D01*
X146438500Y-82463134D01*
X146445255Y-82525316D01*
X146496385Y-82661705D01*
X146583739Y-82778261D01*
X146700295Y-82865615D01*
X146836684Y-82916745D01*
X146898866Y-82923500D01*
X147995134Y-82923500D01*
X148057316Y-82916745D01*
X148193705Y-82865615D01*
X148310261Y-82778261D01*
X148397615Y-82661705D01*
X148448745Y-82525316D01*
X148455500Y-82463134D01*
X151772500Y-82463134D01*
X151779255Y-82525316D01*
X151830385Y-82661705D01*
X151917739Y-82778261D01*
X152034295Y-82865615D01*
X152170684Y-82916745D01*
X152232866Y-82923500D01*
X153329134Y-82923500D01*
X153391316Y-82916745D01*
X153527705Y-82865615D01*
X153644261Y-82778261D01*
X153731615Y-82661705D01*
X153782745Y-82525316D01*
X153789500Y-82463134D01*
X157106500Y-82463134D01*
X157113255Y-82525316D01*
X157164385Y-82661705D01*
X157251739Y-82778261D01*
X157368295Y-82865615D01*
X157504684Y-82916745D01*
X157566866Y-82923500D01*
X158663134Y-82923500D01*
X158725316Y-82916745D01*
X158861705Y-82865615D01*
X158978261Y-82778261D01*
X159065615Y-82661705D01*
X159116745Y-82525316D01*
X159123500Y-82463134D01*
X162440500Y-82463134D01*
X162447255Y-82525316D01*
X162498385Y-82661705D01*
X162585739Y-82778261D01*
X162702295Y-82865615D01*
X162838684Y-82916745D01*
X162900866Y-82923500D01*
X163997134Y-82923500D01*
X164059316Y-82916745D01*
X164195705Y-82865615D01*
X164312261Y-82778261D01*
X164399615Y-82661705D01*
X164450745Y-82525316D01*
X164457500Y-82463134D01*
X164457500Y-81366866D01*
X164450745Y-81304684D01*
X164399615Y-81168295D01*
X164312261Y-81051739D01*
X164195705Y-80964385D01*
X164059316Y-80913255D01*
X163997134Y-80906500D01*
X162900866Y-80906500D01*
X162838684Y-80913255D01*
X162702295Y-80964385D01*
X162585739Y-81051739D01*
X162498385Y-81168295D01*
X162447255Y-81304684D01*
X162440500Y-81366866D01*
X162440500Y-82463134D01*
X159123500Y-82463134D01*
X159123500Y-81366866D01*
X159116745Y-81304684D01*
X159065615Y-81168295D01*
X158978261Y-81051739D01*
X158861705Y-80964385D01*
X158725316Y-80913255D01*
X158663134Y-80906500D01*
X157566866Y-80906500D01*
X157504684Y-80913255D01*
X157368295Y-80964385D01*
X157251739Y-81051739D01*
X157164385Y-81168295D01*
X157113255Y-81304684D01*
X157106500Y-81366866D01*
X157106500Y-82463134D01*
X153789500Y-82463134D01*
X153789500Y-81366866D01*
X153782745Y-81304684D01*
X153731615Y-81168295D01*
X153644261Y-81051739D01*
X153527705Y-80964385D01*
X153391316Y-80913255D01*
X153329134Y-80906500D01*
X152232866Y-80906500D01*
X152170684Y-80913255D01*
X152034295Y-80964385D01*
X151917739Y-81051739D01*
X151830385Y-81168295D01*
X151779255Y-81304684D01*
X151772500Y-81366866D01*
X151772500Y-82463134D01*
X148455500Y-82463134D01*
X148455500Y-81366866D01*
X148448745Y-81304684D01*
X148397615Y-81168295D01*
X148310261Y-81051739D01*
X148193705Y-80964385D01*
X148057316Y-80913255D01*
X147995134Y-80906500D01*
X146898866Y-80906500D01*
X146836684Y-80913255D01*
X146700295Y-80964385D01*
X146583739Y-81051739D01*
X146496385Y-81168295D01*
X146445255Y-81304684D01*
X146438500Y-81366866D01*
X146438500Y-82463134D01*
X145577500Y-82463134D01*
X145577500Y-80467524D01*
X145572181Y-80467524D01*
X145564652Y-80441883D01*
X145557104Y-80430138D01*
X145552000Y-80394639D01*
X145552000Y-79374000D01*
X145572002Y-79305879D01*
X145625658Y-79259386D01*
X145678000Y-79248000D01*
X145934000Y-79248000D01*
X146002121Y-79268002D01*
X146048614Y-79321658D01*
X146060000Y-79374000D01*
X146060000Y-80459564D01*
X146063973Y-80473095D01*
X146072188Y-80474276D01*
X146166337Y-80447989D01*
X146177787Y-80443548D01*
X146343226Y-80359979D01*
X146353588Y-80353403D01*
X146362074Y-80346773D01*
X146428068Y-80320595D01*
X146501117Y-80336074D01*
X146670294Y-80430624D01*
X146858392Y-80491740D01*
X147054777Y-80515158D01*
X147060912Y-80514686D01*
X147060914Y-80514686D01*
X147245830Y-80500457D01*
X147245834Y-80500456D01*
X147251972Y-80499984D01*
X147442463Y-80446798D01*
X147447967Y-80444018D01*
X147447969Y-80444017D01*
X147613493Y-80360405D01*
X147613495Y-80360404D01*
X147618996Y-80357625D01*
X147623850Y-80353833D01*
X147623859Y-80353827D01*
X147632548Y-80347038D01*
X147698542Y-80320860D01*
X147771592Y-80336339D01*
X147940294Y-80430624D01*
X148128392Y-80491740D01*
X148324777Y-80515158D01*
X148330912Y-80514686D01*
X148330914Y-80514686D01*
X148515830Y-80500457D01*
X148515834Y-80500456D01*
X148521972Y-80499984D01*
X148712463Y-80446798D01*
X148717967Y-80444018D01*
X148717969Y-80444017D01*
X148883493Y-80360405D01*
X148883495Y-80360404D01*
X148888996Y-80357625D01*
X148893850Y-80353833D01*
X148893859Y-80353827D01*
X148902548Y-80347038D01*
X148968542Y-80320860D01*
X149041592Y-80336339D01*
X149210294Y-80430624D01*
X149398392Y-80491740D01*
X149594777Y-80515158D01*
X149600912Y-80514686D01*
X149600914Y-80514686D01*
X149785830Y-80500457D01*
X149785834Y-80500456D01*
X149791972Y-80499984D01*
X149982463Y-80446798D01*
X149987967Y-80444018D01*
X149987969Y-80444017D01*
X150153493Y-80360405D01*
X150153495Y-80360404D01*
X150158996Y-80357625D01*
X150163850Y-80353833D01*
X150163859Y-80353827D01*
X150172548Y-80347038D01*
X150238542Y-80320860D01*
X150311592Y-80336339D01*
X150480294Y-80430624D01*
X150668392Y-80491740D01*
X150864777Y-80515158D01*
X150870912Y-80514686D01*
X150870914Y-80514686D01*
X151055830Y-80500457D01*
X151055834Y-80500456D01*
X151061972Y-80499984D01*
X151252463Y-80446798D01*
X151257967Y-80444018D01*
X151257969Y-80444017D01*
X151423493Y-80360405D01*
X151423495Y-80360404D01*
X151428996Y-80357625D01*
X151433850Y-80353833D01*
X151433859Y-80353827D01*
X151442548Y-80347038D01*
X151508542Y-80320860D01*
X151581592Y-80336339D01*
X151750294Y-80430624D01*
X151938392Y-80491740D01*
X152134777Y-80515158D01*
X152140912Y-80514686D01*
X152140914Y-80514686D01*
X152325830Y-80500457D01*
X152325834Y-80500456D01*
X152331972Y-80499984D01*
X152522463Y-80446798D01*
X152527959Y-80444022D01*
X152527961Y-80444021D01*
X152541716Y-80437073D01*
X152611538Y-80424214D01*
X152663368Y-80444514D01*
X152664240Y-80442921D01*
X152672109Y-80447229D01*
X152679295Y-80452615D01*
X152815684Y-80503745D01*
X152877866Y-80510500D01*
X153974134Y-80510500D01*
X154036316Y-80503745D01*
X154172705Y-80452615D01*
X154289261Y-80365261D01*
X154376615Y-80248705D01*
X154427745Y-80112316D01*
X154434500Y-80050134D01*
X154434500Y-78953866D01*
X154427745Y-78891684D01*
X154376615Y-78755295D01*
X154289261Y-78638739D01*
X154172705Y-78551385D01*
X154036316Y-78500255D01*
X153974134Y-78493500D01*
X152877866Y-78493500D01*
X152815684Y-78500255D01*
X152679295Y-78551385D01*
X152672116Y-78556766D01*
X152664237Y-78561079D01*
X152663023Y-78558861D01*
X152609072Y-78579018D01*
X152552127Y-78569654D01*
X152548701Y-78567802D01*
X152359768Y-78509318D01*
X152353643Y-78508674D01*
X152353642Y-78508674D01*
X152169204Y-78489289D01*
X152169202Y-78489289D01*
X152163075Y-78488645D01*
X152080576Y-78496153D01*
X151972251Y-78506011D01*
X151972248Y-78506012D01*
X151966112Y-78506570D01*
X151960206Y-78508308D01*
X151960202Y-78508309D01*
X151894531Y-78527637D01*
X151776381Y-78562410D01*
X151770923Y-78565263D01*
X151770919Y-78565265D01*
X151675135Y-78615340D01*
X151601110Y-78654040D01*
X151596310Y-78657900D01*
X151591153Y-78661274D01*
X151589769Y-78659158D01*
X151534365Y-78682027D01*
X151464512Y-78669334D01*
X151454898Y-78663709D01*
X151452675Y-78661870D01*
X151278701Y-78567802D01*
X151279166Y-78566942D01*
X151228451Y-78525636D01*
X151206382Y-78458157D01*
X151214341Y-78410086D01*
X151239971Y-78341718D01*
X151239973Y-78341712D01*
X151242745Y-78334316D01*
X151249500Y-78272134D01*
X151249500Y-77175866D01*
X151249132Y-77172477D01*
X151249053Y-77171021D01*
X151265344Y-77101919D01*
X151316408Y-77052593D01*
X151374869Y-77038210D01*
X154568131Y-77038210D01*
X154636252Y-77058212D01*
X154682745Y-77111868D01*
X154693947Y-77171021D01*
X154693868Y-77172477D01*
X154693500Y-77175866D01*
X154693500Y-78272134D01*
X154700255Y-78334316D01*
X154751385Y-78470705D01*
X154838739Y-78587261D01*
X154955295Y-78674615D01*
X154963703Y-78677767D01*
X155080168Y-78721428D01*
X155136932Y-78764070D01*
X155161632Y-78830631D01*
X155146425Y-78899980D01*
X155132460Y-78920400D01*
X155124846Y-78929474D01*
X155121879Y-78934872D01*
X155121875Y-78934877D01*
X155043095Y-79078180D01*
X155029567Y-79102787D01*
X155027706Y-79108654D01*
X155027705Y-79108656D01*
X154979891Y-79259386D01*
X154969765Y-79291306D01*
X154947719Y-79487851D01*
X154964268Y-79684934D01*
X155018783Y-79875050D01*
X155109187Y-80050956D01*
X155232035Y-80205953D01*
X155236728Y-80209947D01*
X155236729Y-80209948D01*
X155367051Y-80320860D01*
X155382650Y-80334136D01*
X155555294Y-80430624D01*
X155743392Y-80491740D01*
X155939777Y-80515158D01*
X155945912Y-80514686D01*
X155945914Y-80514686D01*
X156130830Y-80500457D01*
X156130834Y-80500456D01*
X156136972Y-80499984D01*
X156327463Y-80446798D01*
X156332967Y-80444018D01*
X156332969Y-80444017D01*
X156498493Y-80360405D01*
X156498495Y-80360404D01*
X156503996Y-80357625D01*
X156508850Y-80353833D01*
X156508859Y-80353827D01*
X156517548Y-80347038D01*
X156583542Y-80320860D01*
X156656592Y-80336339D01*
X156825294Y-80430624D01*
X157013392Y-80491740D01*
X157209777Y-80515158D01*
X157215912Y-80514686D01*
X157215914Y-80514686D01*
X157400830Y-80500457D01*
X157400834Y-80500456D01*
X157406972Y-80499984D01*
X157597463Y-80446798D01*
X157602967Y-80444018D01*
X157602969Y-80444017D01*
X157768493Y-80360405D01*
X157768495Y-80360404D01*
X157773996Y-80357625D01*
X157778850Y-80353833D01*
X157778859Y-80353827D01*
X157787548Y-80347038D01*
X157853542Y-80320860D01*
X157926592Y-80336339D01*
X158095294Y-80430624D01*
X158283392Y-80491740D01*
X158479777Y-80515158D01*
X158485912Y-80514686D01*
X158485914Y-80514686D01*
X158670830Y-80500457D01*
X158670834Y-80500456D01*
X158676972Y-80499984D01*
X158867463Y-80446798D01*
X158872967Y-80444018D01*
X158872969Y-80444017D01*
X159038493Y-80360405D01*
X159038495Y-80360404D01*
X159043996Y-80357625D01*
X159048850Y-80353833D01*
X159048859Y-80353827D01*
X159057548Y-80347038D01*
X159123542Y-80320860D01*
X159196592Y-80336339D01*
X159365294Y-80430624D01*
X159553392Y-80491740D01*
X159749777Y-80515158D01*
X159755912Y-80514686D01*
X159755914Y-80514686D01*
X159940830Y-80500457D01*
X159940834Y-80500456D01*
X159946972Y-80499984D01*
X160137463Y-80446798D01*
X160142967Y-80444018D01*
X160142969Y-80444017D01*
X160308493Y-80360405D01*
X160308495Y-80360404D01*
X160313996Y-80357625D01*
X160318850Y-80353833D01*
X160318859Y-80353827D01*
X160327548Y-80347038D01*
X160393542Y-80320860D01*
X160466592Y-80336339D01*
X160635294Y-80430624D01*
X160823392Y-80491740D01*
X161019777Y-80515158D01*
X161025912Y-80514686D01*
X161025914Y-80514686D01*
X161210830Y-80500457D01*
X161210834Y-80500456D01*
X161216972Y-80499984D01*
X161407463Y-80446798D01*
X161412967Y-80444018D01*
X161412969Y-80444017D01*
X161578493Y-80360405D01*
X161578495Y-80360404D01*
X161583996Y-80357625D01*
X161588850Y-80353833D01*
X161588859Y-80353827D01*
X161597548Y-80347038D01*
X161663542Y-80320860D01*
X161736592Y-80336339D01*
X161905294Y-80430624D01*
X162093392Y-80491740D01*
X162289777Y-80515158D01*
X162295912Y-80514686D01*
X162295914Y-80514686D01*
X162480830Y-80500457D01*
X162480834Y-80500456D01*
X162486972Y-80499984D01*
X162677463Y-80446798D01*
X162682967Y-80444018D01*
X162682969Y-80444017D01*
X162848493Y-80360405D01*
X162848495Y-80360404D01*
X162853996Y-80357625D01*
X162858850Y-80353833D01*
X162858859Y-80353827D01*
X162867548Y-80347038D01*
X162933542Y-80320860D01*
X163006592Y-80336339D01*
X163175294Y-80430624D01*
X163363392Y-80491740D01*
X163559777Y-80515158D01*
X163565912Y-80514686D01*
X163565914Y-80514686D01*
X163750830Y-80500457D01*
X163750834Y-80500456D01*
X163756972Y-80499984D01*
X163947463Y-80446798D01*
X163952959Y-80444022D01*
X163952961Y-80444021D01*
X163966716Y-80437073D01*
X164036538Y-80424214D01*
X164088368Y-80444514D01*
X164089240Y-80442921D01*
X164097109Y-80447229D01*
X164104295Y-80452615D01*
X164240684Y-80503745D01*
X164302866Y-80510500D01*
X165399134Y-80510500D01*
X165461316Y-80503745D01*
X165597705Y-80452615D01*
X165714261Y-80365261D01*
X165801615Y-80248705D01*
X165852745Y-80112316D01*
X165859500Y-80050134D01*
X165859500Y-78953866D01*
X165852745Y-78891684D01*
X165801615Y-78755295D01*
X165714261Y-78638739D01*
X165597705Y-78551385D01*
X165461316Y-78500255D01*
X165399134Y-78493500D01*
X164302866Y-78493500D01*
X164240684Y-78500255D01*
X164104295Y-78551385D01*
X164097116Y-78556766D01*
X164089237Y-78561079D01*
X164088023Y-78558861D01*
X164034072Y-78579018D01*
X163977127Y-78569654D01*
X163973701Y-78567802D01*
X163784768Y-78509318D01*
X163778643Y-78508674D01*
X163778642Y-78508674D01*
X163594204Y-78489289D01*
X163594202Y-78489289D01*
X163588075Y-78488645D01*
X163505576Y-78496153D01*
X163397251Y-78506011D01*
X163397248Y-78506012D01*
X163391112Y-78506570D01*
X163385206Y-78508308D01*
X163385202Y-78508309D01*
X163319531Y-78527637D01*
X163201381Y-78562410D01*
X163195923Y-78565263D01*
X163195919Y-78565265D01*
X163100135Y-78615340D01*
X163026110Y-78654040D01*
X163021310Y-78657900D01*
X163016153Y-78661274D01*
X163014769Y-78659158D01*
X162959365Y-78682027D01*
X162889512Y-78669334D01*
X162879898Y-78663709D01*
X162877675Y-78661870D01*
X162703701Y-78567802D01*
X162514768Y-78509318D01*
X162508643Y-78508674D01*
X162508642Y-78508674D01*
X162324204Y-78489289D01*
X162324202Y-78489289D01*
X162318075Y-78488645D01*
X162235576Y-78496153D01*
X162127251Y-78506011D01*
X162127248Y-78506012D01*
X162121112Y-78506570D01*
X162115202Y-78508310D01*
X162115199Y-78508310D01*
X162054243Y-78526250D01*
X161983247Y-78526294D01*
X161923497Y-78487948D01*
X161893963Y-78423386D01*
X161900687Y-78361147D01*
X161907971Y-78341718D01*
X161907973Y-78341712D01*
X161910745Y-78334316D01*
X161917500Y-78272134D01*
X161917500Y-77175866D01*
X161917132Y-77172475D01*
X161917053Y-77171023D01*
X161933343Y-77101920D01*
X161984407Y-77052595D01*
X162042869Y-77038211D01*
X166156200Y-77038211D01*
X166224321Y-77058213D01*
X166270814Y-77111869D01*
X166282200Y-77164211D01*
X166282201Y-102646200D01*
X166262199Y-102714321D01*
X166208543Y-102760814D01*
X166156201Y-102772200D01*
X140674201Y-102772200D01*
X140606080Y-102752198D01*
X140559587Y-102698542D01*
X140548201Y-102646200D01*
X140548201Y-100315851D01*
X145930719Y-100315851D01*
X145947268Y-100512934D01*
X146001783Y-100703050D01*
X146092187Y-100878956D01*
X146215035Y-101033953D01*
X146219728Y-101037947D01*
X146219729Y-101037948D01*
X146350051Y-101148860D01*
X146365650Y-101162136D01*
X146538294Y-101258624D01*
X146726392Y-101319740D01*
X146922777Y-101343158D01*
X146928912Y-101342686D01*
X146928914Y-101342686D01*
X147113830Y-101328457D01*
X147113834Y-101328456D01*
X147119972Y-101327984D01*
X147310463Y-101274798D01*
X147315967Y-101272018D01*
X147315969Y-101272017D01*
X147481493Y-101188405D01*
X147481495Y-101188404D01*
X147486996Y-101185625D01*
X147491850Y-101181833D01*
X147491859Y-101181827D01*
X147500548Y-101175038D01*
X147566542Y-101148860D01*
X147639592Y-101164339D01*
X147808294Y-101258624D01*
X147996392Y-101319740D01*
X148192777Y-101343158D01*
X148198912Y-101342686D01*
X148198914Y-101342686D01*
X148383830Y-101328457D01*
X148383834Y-101328456D01*
X148389972Y-101327984D01*
X148580463Y-101274798D01*
X148585967Y-101272018D01*
X148585969Y-101272017D01*
X148751493Y-101188405D01*
X148751495Y-101188404D01*
X148756996Y-101185625D01*
X148761850Y-101181833D01*
X148761859Y-101181827D01*
X148770548Y-101175038D01*
X148836542Y-101148860D01*
X148909592Y-101164339D01*
X149078294Y-101258624D01*
X149266392Y-101319740D01*
X149462777Y-101343158D01*
X149468912Y-101342686D01*
X149468914Y-101342686D01*
X149653830Y-101328457D01*
X149653834Y-101328456D01*
X149659972Y-101327984D01*
X149850463Y-101274798D01*
X149855967Y-101272018D01*
X149855969Y-101272017D01*
X150021493Y-101188405D01*
X150021495Y-101188404D01*
X150026996Y-101185625D01*
X150031850Y-101181833D01*
X150031859Y-101181827D01*
X150040548Y-101175038D01*
X150106542Y-101148860D01*
X150179592Y-101164339D01*
X150348294Y-101258624D01*
X150536392Y-101319740D01*
X150732777Y-101343158D01*
X150738912Y-101342686D01*
X150738914Y-101342686D01*
X150923830Y-101328457D01*
X150923834Y-101328456D01*
X150929972Y-101327984D01*
X151120463Y-101274798D01*
X151125967Y-101272018D01*
X151125969Y-101272017D01*
X151291493Y-101188405D01*
X151291495Y-101188404D01*
X151296996Y-101185625D01*
X151301850Y-101181833D01*
X151301859Y-101181827D01*
X151310548Y-101175038D01*
X151376542Y-101148860D01*
X151449592Y-101164339D01*
X151618294Y-101258624D01*
X151806392Y-101319740D01*
X152002777Y-101343158D01*
X152008912Y-101342686D01*
X152008914Y-101342686D01*
X152193830Y-101328457D01*
X152193834Y-101328456D01*
X152199972Y-101327984D01*
X152390463Y-101274798D01*
X152395967Y-101272018D01*
X152395969Y-101272017D01*
X152561493Y-101188405D01*
X152561495Y-101188404D01*
X152566996Y-101185625D01*
X152571858Y-101181827D01*
X152580973Y-101174705D01*
X152646967Y-101148525D01*
X152720020Y-101164004D01*
X152883121Y-101255159D01*
X152894356Y-101260067D01*
X153022768Y-101301790D01*
X153036867Y-101302193D01*
X153040000Y-101295821D01*
X153040000Y-101287564D01*
X153548000Y-101287564D01*
X153551973Y-101301095D01*
X153560188Y-101302276D01*
X153654337Y-101275989D01*
X153665787Y-101271548D01*
X153831224Y-101187980D01*
X153841589Y-101181402D01*
X153850503Y-101174438D01*
X153916497Y-101148261D01*
X153989545Y-101163740D01*
X154153116Y-101255156D01*
X154164356Y-101260067D01*
X154292768Y-101301790D01*
X154306867Y-101302193D01*
X154310000Y-101295821D01*
X154310000Y-101287564D01*
X154818000Y-101287564D01*
X154821973Y-101301095D01*
X154830188Y-101302276D01*
X154924345Y-101275986D01*
X154935778Y-101271552D01*
X154949266Y-101264739D01*
X155019089Y-101251879D01*
X155071441Y-101272381D01*
X155072240Y-101270921D01*
X155080108Y-101275229D01*
X155087295Y-101280615D01*
X155223684Y-101331745D01*
X155285866Y-101338500D01*
X156382134Y-101338500D01*
X156444316Y-101331745D01*
X156580705Y-101280615D01*
X156697261Y-101193261D01*
X156784615Y-101076705D01*
X156835745Y-100940316D01*
X156842500Y-100878134D01*
X156842500Y-100315851D01*
X157228719Y-100315851D01*
X157245268Y-100512934D01*
X157299783Y-100703050D01*
X157390187Y-100878956D01*
X157513035Y-101033953D01*
X157517728Y-101037947D01*
X157517729Y-101037948D01*
X157648051Y-101148860D01*
X157663650Y-101162136D01*
X157836294Y-101258624D01*
X158024392Y-101319740D01*
X158220777Y-101343158D01*
X158226912Y-101342686D01*
X158226914Y-101342686D01*
X158411830Y-101328457D01*
X158411834Y-101328456D01*
X158417972Y-101327984D01*
X158608463Y-101274798D01*
X158613967Y-101272018D01*
X158613969Y-101272017D01*
X158779493Y-101188405D01*
X158779495Y-101188404D01*
X158784996Y-101185625D01*
X158789850Y-101181833D01*
X158789859Y-101181827D01*
X158798548Y-101175038D01*
X158864542Y-101148860D01*
X158937592Y-101164339D01*
X159106294Y-101258624D01*
X159294392Y-101319740D01*
X159490777Y-101343158D01*
X159496912Y-101342686D01*
X159496914Y-101342686D01*
X159681830Y-101328457D01*
X159681834Y-101328456D01*
X159687972Y-101327984D01*
X159878463Y-101274798D01*
X159883967Y-101272018D01*
X159883969Y-101272017D01*
X160049493Y-101188405D01*
X160049495Y-101188404D01*
X160054996Y-101185625D01*
X160059850Y-101181833D01*
X160059859Y-101181827D01*
X160068548Y-101175038D01*
X160134542Y-101148860D01*
X160207592Y-101164339D01*
X160376294Y-101258624D01*
X160564392Y-101319740D01*
X160760777Y-101343158D01*
X160766912Y-101342686D01*
X160766914Y-101342686D01*
X160951830Y-101328457D01*
X160951834Y-101328456D01*
X160957972Y-101327984D01*
X161148463Y-101274798D01*
X161153967Y-101272018D01*
X161153969Y-101272017D01*
X161319493Y-101188405D01*
X161319495Y-101188404D01*
X161324996Y-101185625D01*
X161329850Y-101181833D01*
X161329859Y-101181827D01*
X161338548Y-101175038D01*
X161404542Y-101148860D01*
X161477592Y-101164339D01*
X161646294Y-101258624D01*
X161834392Y-101319740D01*
X162030777Y-101343158D01*
X162036912Y-101342686D01*
X162036914Y-101342686D01*
X162221830Y-101328457D01*
X162221834Y-101328456D01*
X162227972Y-101327984D01*
X162418463Y-101274798D01*
X162423967Y-101272018D01*
X162423969Y-101272017D01*
X162589493Y-101188405D01*
X162589495Y-101188404D01*
X162594996Y-101185625D01*
X162599850Y-101181833D01*
X162599859Y-101181827D01*
X162608548Y-101175038D01*
X162674542Y-101148860D01*
X162747592Y-101164339D01*
X162916294Y-101258624D01*
X163104392Y-101319740D01*
X163300777Y-101343158D01*
X163306912Y-101342686D01*
X163306914Y-101342686D01*
X163491830Y-101328457D01*
X163491834Y-101328456D01*
X163497972Y-101327984D01*
X163688463Y-101274798D01*
X163693959Y-101272022D01*
X163693961Y-101272021D01*
X163707716Y-101265073D01*
X163777538Y-101252214D01*
X163829368Y-101272514D01*
X163830240Y-101270921D01*
X163838109Y-101275229D01*
X163845295Y-101280615D01*
X163981684Y-101331745D01*
X164043866Y-101338500D01*
X165140134Y-101338500D01*
X165202316Y-101331745D01*
X165338705Y-101280615D01*
X165455261Y-101193261D01*
X165542615Y-101076705D01*
X165593745Y-100940316D01*
X165600500Y-100878134D01*
X165600500Y-99781866D01*
X165593745Y-99719684D01*
X165542615Y-99583295D01*
X165455261Y-99466739D01*
X165338705Y-99379385D01*
X165202316Y-99328255D01*
X165140134Y-99321500D01*
X164043866Y-99321500D01*
X163981684Y-99328255D01*
X163845295Y-99379385D01*
X163838116Y-99384766D01*
X163830237Y-99389079D01*
X163829023Y-99386861D01*
X163775072Y-99407018D01*
X163718127Y-99397654D01*
X163714701Y-99395802D01*
X163525768Y-99337318D01*
X163519643Y-99336674D01*
X163519642Y-99336674D01*
X163335204Y-99317289D01*
X163335202Y-99317289D01*
X163329075Y-99316645D01*
X163246576Y-99324153D01*
X163138251Y-99334011D01*
X163138248Y-99334012D01*
X163132112Y-99334570D01*
X163126206Y-99336308D01*
X163126202Y-99336309D01*
X163027702Y-99365299D01*
X162942381Y-99390410D01*
X162936923Y-99393263D01*
X162936919Y-99393265D01*
X162841135Y-99443340D01*
X162767110Y-99482040D01*
X162762310Y-99485900D01*
X162757153Y-99489274D01*
X162755769Y-99487158D01*
X162700365Y-99510027D01*
X162630512Y-99497334D01*
X162620898Y-99491709D01*
X162618675Y-99489870D01*
X162444701Y-99395802D01*
X162255768Y-99337318D01*
X162249643Y-99336674D01*
X162249642Y-99336674D01*
X162065204Y-99317289D01*
X162065202Y-99317289D01*
X162059075Y-99316645D01*
X161976576Y-99324153D01*
X161868251Y-99334011D01*
X161868248Y-99334012D01*
X161862112Y-99334570D01*
X161856206Y-99336308D01*
X161856202Y-99336309D01*
X161757702Y-99365299D01*
X161672381Y-99390410D01*
X161666923Y-99393263D01*
X161666919Y-99393265D01*
X161571135Y-99443340D01*
X161497110Y-99482040D01*
X161492310Y-99485900D01*
X161487153Y-99489274D01*
X161485769Y-99487158D01*
X161430365Y-99510027D01*
X161360512Y-99497334D01*
X161350898Y-99491709D01*
X161348675Y-99489870D01*
X161174701Y-99395802D01*
X160985768Y-99337318D01*
X160979643Y-99336674D01*
X160979642Y-99336674D01*
X160795204Y-99317289D01*
X160795202Y-99317289D01*
X160789075Y-99316645D01*
X160706576Y-99324153D01*
X160598251Y-99334011D01*
X160598248Y-99334012D01*
X160592112Y-99334570D01*
X160586206Y-99336308D01*
X160586202Y-99336309D01*
X160487702Y-99365299D01*
X160402381Y-99390410D01*
X160396923Y-99393263D01*
X160396919Y-99393265D01*
X160301135Y-99443340D01*
X160227110Y-99482040D01*
X160222310Y-99485900D01*
X160217153Y-99489274D01*
X160215769Y-99487158D01*
X160160365Y-99510027D01*
X160090512Y-99497334D01*
X160080898Y-99491709D01*
X160078675Y-99489870D01*
X159904701Y-99395802D01*
X159715768Y-99337318D01*
X159709643Y-99336674D01*
X159709642Y-99336674D01*
X159525204Y-99317289D01*
X159525202Y-99317289D01*
X159519075Y-99316645D01*
X159436576Y-99324153D01*
X159328251Y-99334011D01*
X159328248Y-99334012D01*
X159322112Y-99334570D01*
X159316206Y-99336308D01*
X159316202Y-99336309D01*
X159217702Y-99365299D01*
X159132381Y-99390410D01*
X159126923Y-99393263D01*
X159126919Y-99393265D01*
X159031135Y-99443340D01*
X158957110Y-99482040D01*
X158952310Y-99485900D01*
X158947153Y-99489274D01*
X158945769Y-99487158D01*
X158890365Y-99510027D01*
X158820512Y-99497334D01*
X158810898Y-99491709D01*
X158808675Y-99489870D01*
X158634701Y-99395802D01*
X158445768Y-99337318D01*
X158439643Y-99336674D01*
X158439642Y-99336674D01*
X158255204Y-99317289D01*
X158255202Y-99317289D01*
X158249075Y-99316645D01*
X158166576Y-99324153D01*
X158058251Y-99334011D01*
X158058248Y-99334012D01*
X158052112Y-99334570D01*
X158046206Y-99336308D01*
X158046202Y-99336309D01*
X157947702Y-99365299D01*
X157862381Y-99390410D01*
X157856923Y-99393263D01*
X157856919Y-99393265D01*
X157766147Y-99440720D01*
X157687110Y-99482040D01*
X157532975Y-99605968D01*
X157405846Y-99757474D01*
X157402879Y-99762872D01*
X157402875Y-99762877D01*
X157324095Y-99906180D01*
X157310567Y-99930787D01*
X157308706Y-99936654D01*
X157308705Y-99936656D01*
X157252627Y-100113436D01*
X157250765Y-100119306D01*
X157228719Y-100315851D01*
X156842500Y-100315851D01*
X156842500Y-99781866D01*
X156835745Y-99719684D01*
X156784615Y-99583295D01*
X156697261Y-99466739D01*
X156580705Y-99379385D01*
X156444316Y-99328255D01*
X156382134Y-99321500D01*
X155285866Y-99321500D01*
X155223684Y-99328255D01*
X155087295Y-99379385D01*
X155080108Y-99384771D01*
X155072240Y-99389079D01*
X155071105Y-99387006D01*
X155016606Y-99407368D01*
X154958723Y-99397850D01*
X154950620Y-99394444D01*
X154835308Y-99358750D01*
X154821205Y-99358544D01*
X154818000Y-99365299D01*
X154818000Y-101287564D01*
X154310000Y-101287564D01*
X154310000Y-100602115D01*
X154305525Y-100586876D01*
X154304135Y-100585671D01*
X154296452Y-100584000D01*
X153566115Y-100584000D01*
X153550876Y-100588475D01*
X153549671Y-100589865D01*
X153548000Y-100597548D01*
X153548000Y-101287564D01*
X153040000Y-101287564D01*
X153040000Y-100057885D01*
X153548000Y-100057885D01*
X153552475Y-100073124D01*
X153553865Y-100074329D01*
X153561548Y-100076000D01*
X154291885Y-100076000D01*
X154307124Y-100071525D01*
X154308329Y-100070135D01*
X154310000Y-100062452D01*
X154310000Y-99372076D01*
X154306027Y-99358545D01*
X154298232Y-99357425D01*
X154190479Y-99389138D01*
X154179111Y-99393731D01*
X154014846Y-99479607D01*
X153999426Y-99489697D01*
X153998095Y-99487663D01*
X153942357Y-99510653D01*
X153872508Y-99497943D01*
X153858617Y-99489814D01*
X153854971Y-99487355D01*
X153691924Y-99399196D01*
X153680619Y-99394444D01*
X153565308Y-99358750D01*
X153551205Y-99358544D01*
X153548000Y-99365299D01*
X153548000Y-100057885D01*
X153040000Y-100057885D01*
X153040000Y-99372076D01*
X153036027Y-99358545D01*
X153028232Y-99357425D01*
X152920479Y-99389138D01*
X152909111Y-99393731D01*
X152744846Y-99479607D01*
X152729426Y-99489697D01*
X152728003Y-99487522D01*
X152672864Y-99510314D01*
X152603005Y-99497657D01*
X152593055Y-99491839D01*
X152590675Y-99489870D01*
X152416701Y-99395802D01*
X152227768Y-99337318D01*
X152221643Y-99336674D01*
X152221642Y-99336674D01*
X152037204Y-99317289D01*
X152037202Y-99317289D01*
X152031075Y-99316645D01*
X151948576Y-99324153D01*
X151840251Y-99334011D01*
X151840248Y-99334012D01*
X151834112Y-99334570D01*
X151828206Y-99336308D01*
X151828202Y-99336309D01*
X151729702Y-99365299D01*
X151644381Y-99390410D01*
X151638923Y-99393263D01*
X151638919Y-99393265D01*
X151543135Y-99443340D01*
X151469110Y-99482040D01*
X151464310Y-99485900D01*
X151459153Y-99489274D01*
X151457769Y-99487158D01*
X151402365Y-99510027D01*
X151332512Y-99497334D01*
X151322898Y-99491709D01*
X151320675Y-99489870D01*
X151146701Y-99395802D01*
X150957768Y-99337318D01*
X150951643Y-99336674D01*
X150951642Y-99336674D01*
X150767204Y-99317289D01*
X150767202Y-99317289D01*
X150761075Y-99316645D01*
X150678576Y-99324153D01*
X150570251Y-99334011D01*
X150570248Y-99334012D01*
X150564112Y-99334570D01*
X150558206Y-99336308D01*
X150558202Y-99336309D01*
X150459702Y-99365299D01*
X150374381Y-99390410D01*
X150368923Y-99393263D01*
X150368919Y-99393265D01*
X150273135Y-99443340D01*
X150199110Y-99482040D01*
X150194310Y-99485900D01*
X150189153Y-99489274D01*
X150187769Y-99487158D01*
X150132365Y-99510027D01*
X150062512Y-99497334D01*
X150052898Y-99491709D01*
X150050675Y-99489870D01*
X149876701Y-99395802D01*
X149687768Y-99337318D01*
X149681643Y-99336674D01*
X149681642Y-99336674D01*
X149497204Y-99317289D01*
X149497202Y-99317289D01*
X149491075Y-99316645D01*
X149408576Y-99324153D01*
X149300251Y-99334011D01*
X149300248Y-99334012D01*
X149294112Y-99334570D01*
X149288206Y-99336308D01*
X149288202Y-99336309D01*
X149189702Y-99365299D01*
X149104381Y-99390410D01*
X149098923Y-99393263D01*
X149098919Y-99393265D01*
X149003135Y-99443340D01*
X148929110Y-99482040D01*
X148924310Y-99485900D01*
X148919153Y-99489274D01*
X148917769Y-99487158D01*
X148862365Y-99510027D01*
X148792512Y-99497334D01*
X148782898Y-99491709D01*
X148780675Y-99489870D01*
X148606701Y-99395802D01*
X148417768Y-99337318D01*
X148411643Y-99336674D01*
X148411642Y-99336674D01*
X148227204Y-99317289D01*
X148227202Y-99317289D01*
X148221075Y-99316645D01*
X148138576Y-99324153D01*
X148030251Y-99334011D01*
X148030248Y-99334012D01*
X148024112Y-99334570D01*
X148018206Y-99336308D01*
X148018202Y-99336309D01*
X147919702Y-99365299D01*
X147834381Y-99390410D01*
X147828923Y-99393263D01*
X147828919Y-99393265D01*
X147733135Y-99443340D01*
X147659110Y-99482040D01*
X147654310Y-99485900D01*
X147649153Y-99489274D01*
X147647769Y-99487158D01*
X147592365Y-99510027D01*
X147522512Y-99497334D01*
X147512898Y-99491709D01*
X147510675Y-99489870D01*
X147336701Y-99395802D01*
X147147768Y-99337318D01*
X147141643Y-99336674D01*
X147141642Y-99336674D01*
X146957204Y-99317289D01*
X146957202Y-99317289D01*
X146951075Y-99316645D01*
X146868576Y-99324153D01*
X146760251Y-99334011D01*
X146760248Y-99334012D01*
X146754112Y-99334570D01*
X146748206Y-99336308D01*
X146748202Y-99336309D01*
X146649702Y-99365299D01*
X146564381Y-99390410D01*
X146558923Y-99393263D01*
X146558919Y-99393265D01*
X146468147Y-99440720D01*
X146389110Y-99482040D01*
X146234975Y-99605968D01*
X146107846Y-99757474D01*
X146104879Y-99762872D01*
X146104875Y-99762877D01*
X146026095Y-99906180D01*
X146012567Y-99930787D01*
X146010706Y-99936654D01*
X146010705Y-99936656D01*
X145954627Y-100113436D01*
X145952765Y-100119306D01*
X145930719Y-100315851D01*
X140548201Y-100315851D01*
X140548200Y-77164200D01*
X140568202Y-77096079D01*
X140621858Y-77049586D01*
X140674200Y-77038200D01*
X141440494Y-77038200D01*
X141440572Y-77038203D01*
G37*
%TD.AperFunction*%
%TD*%
M02*
