M48
INCH,TZ
T1C0.0256
%
G90
G05
T1
X55904Y-31300
X56404Y-31300
X56904Y-31300
X57150Y-30600
X57404Y-31300
X57852Y-39500
X57904Y-31300
X58050Y-32250
X58050Y-34350
X58050Y-36450
X58050Y-38550
X58352Y-39500
X58404Y-31300
X58852Y-39500
X58904Y-31300
X59150Y-30600
X59352Y-39500
X59404Y-31300
X59852Y-39500
X59904Y-31300
X60150Y-32250
X60150Y-34350
X60150Y-36450
X60150Y-38550
X60352Y-39500
X60404Y-31300
X60852Y-39500
X61300Y-30600
X61352Y-39500
X61402Y-31300
X61902Y-31300
X62250Y-32250
X62250Y-34350
X62250Y-36450
X62250Y-38550
X62300Y-39500
X62402Y-31300
X62800Y-39500
X62902Y-31300
X63300Y-39500
X63350Y-30600
X63402Y-31300
X63800Y-39500
X63902Y-31300
X64300Y-39500
X64350Y-32250
X64350Y-34350
X64350Y-36450
X64350Y-38550
X64402Y-31300
X64800Y-39500
X64902Y-31300
T0
M30
