%TF.GenerationSoftware,KiCad,Pcbnew,(6.0.2)*%
%TF.CreationDate,2022-06-08T23:24:18-05:00*%
%TF.ProjectId,UnoMiniCube,556e6f4d-696e-4694-9375-62652e6b6963,rev?*%
%TF.SameCoordinates,Original*%
%TF.FileFunction,Soldermask,Bot*%
%TF.FilePolarity,Negative*%
%FSLAX46Y46*%
G04 Gerber Fmt 4.6, Leading zero omitted, Abs format (unit mm)*
G04 Created by KiCad (PCBNEW (6.0.2)) date 2022-06-08 23:24:18*
%MOMM*%
%LPD*%
G01*
G04 APERTURE LIST*
G04 Aperture macros list*
%AMRoundRect*
0 Rectangle with rounded corners*
0 $1 Rounding radius*
0 $2 $3 $4 $5 $6 $7 $8 $9 X,Y pos of 4 corners*
0 Add a 4 corners polygon primitive as box body*
4,1,4,$2,$3,$4,$5,$6,$7,$8,$9,$2,$3,0*
0 Add four circle primitives for the rounded corners*
1,1,$1+$1,$2,$3*
1,1,$1+$1,$4,$5*
1,1,$1+$1,$6,$7*
1,1,$1+$1,$8,$9*
0 Add four rect primitives between the rounded corners*
20,1,$1+$1,$2,$3,$4,$5,0*
20,1,$1+$1,$4,$5,$6,$7,0*
20,1,$1+$1,$6,$7,$8,$9,0*
20,1,$1+$1,$8,$9,$2,$3,0*%
G04 Aperture macros list end*
%ADD10C,0.300000*%
%ADD11R,1.000000X1.000000*%
%ADD12RoundRect,0.250000X-0.450000X0.350000X-0.450000X-0.350000X0.450000X-0.350000X0.450000X0.350000X0*%
%ADD13RoundRect,0.250000X0.450000X-0.350000X0.450000X0.350000X-0.450000X0.350000X-0.450000X-0.350000X0*%
%ADD14O,1.000000X1.000000*%
G04 APERTURE END LIST*
D10*
X143530928Y-95614428D02*
X145030928Y-95614428D01*
X144316642Y-95614428D02*
X144316642Y-94871571D01*
X143530928Y-94871571D02*
X145030928Y-94871571D01*
X143530928Y-93695380D02*
X144316642Y-93695380D01*
X144459500Y-93757285D01*
X144530928Y-93881095D01*
X144530928Y-94128714D01*
X144459500Y-94252523D01*
X143602357Y-93695380D02*
X143530928Y-93819190D01*
X143530928Y-94128714D01*
X143602357Y-94252523D01*
X143745214Y-94314428D01*
X143888071Y-94314428D01*
X144030928Y-94252523D01*
X144102357Y-94128714D01*
X144102357Y-93819190D01*
X144173785Y-93695380D01*
X143530928Y-93076333D02*
X144530928Y-93076333D01*
X144245214Y-93076333D02*
X144388071Y-93014428D01*
X144459500Y-92952523D01*
X144530928Y-92828714D01*
X144530928Y-92704904D01*
X143530928Y-92271571D02*
X144530928Y-92271571D01*
X145030928Y-92271571D02*
X144959500Y-92333476D01*
X144888071Y-92271571D01*
X144959500Y-92209666D01*
X145030928Y-92271571D01*
X144888071Y-92271571D01*
X145030928Y-90785857D02*
X143530928Y-90476333D01*
X144602357Y-90228714D01*
X143530928Y-89981095D01*
X145030928Y-89671571D01*
X143530928Y-89176333D02*
X144530928Y-89176333D01*
X145030928Y-89176333D02*
X144959500Y-89238238D01*
X144888071Y-89176333D01*
X144959500Y-89114428D01*
X145030928Y-89176333D01*
X144888071Y-89176333D01*
X144530928Y-88000142D02*
X143316642Y-88000142D01*
X143173785Y-88062047D01*
X143102357Y-88123952D01*
X143030928Y-88247761D01*
X143030928Y-88433476D01*
X143102357Y-88557285D01*
X143602357Y-88000142D02*
X143530928Y-88123952D01*
X143530928Y-88371571D01*
X143602357Y-88495380D01*
X143673785Y-88557285D01*
X143816642Y-88619190D01*
X144245214Y-88619190D01*
X144388071Y-88557285D01*
X144459500Y-88495380D01*
X144530928Y-88371571D01*
X144530928Y-88123952D01*
X144459500Y-88000142D01*
X144530928Y-86823952D02*
X143530928Y-86823952D01*
X144530928Y-87381095D02*
X143745214Y-87381095D01*
X143602357Y-87319190D01*
X143530928Y-87195380D01*
X143530928Y-87009666D01*
X143602357Y-86885857D01*
X143673785Y-86823952D01*
X144530928Y-86204904D02*
X143530928Y-86204904D01*
X144388071Y-86204904D02*
X144459500Y-86143000D01*
X144530928Y-86019190D01*
X144530928Y-85833476D01*
X144459500Y-85709666D01*
X144316642Y-85647761D01*
X143530928Y-85647761D01*
X143530928Y-84471571D02*
X144316642Y-84471571D01*
X144459500Y-84533476D01*
X144530928Y-84657285D01*
X144530928Y-84904904D01*
X144459500Y-85028714D01*
X143602357Y-84471571D02*
X143530928Y-84595380D01*
X143530928Y-84904904D01*
X143602357Y-85028714D01*
X143745214Y-85090619D01*
X143888071Y-85090619D01*
X144030928Y-85028714D01*
X144102357Y-84904904D01*
X144102357Y-84595380D01*
X144173785Y-84471571D01*
X142473071Y-92271571D02*
X142544500Y-92209666D01*
X142615928Y-92085857D01*
X142615928Y-91776333D01*
X142544500Y-91652523D01*
X142473071Y-91590619D01*
X142330214Y-91528714D01*
X142187357Y-91528714D01*
X141973071Y-91590619D01*
X141115928Y-92333476D01*
X141115928Y-91528714D01*
X142615928Y-90723952D02*
X142615928Y-90600142D01*
X142544500Y-90476333D01*
X142473071Y-90414428D01*
X142330214Y-90352523D01*
X142044500Y-90290619D01*
X141687357Y-90290619D01*
X141401642Y-90352523D01*
X141258785Y-90414428D01*
X141187357Y-90476333D01*
X141115928Y-90600142D01*
X141115928Y-90723952D01*
X141187357Y-90847761D01*
X141258785Y-90909666D01*
X141401642Y-90971571D01*
X141687357Y-91033476D01*
X142044500Y-91033476D01*
X142330214Y-90971571D01*
X142473071Y-90909666D01*
X142544500Y-90847761D01*
X142615928Y-90723952D01*
X142473071Y-89795380D02*
X142544500Y-89733476D01*
X142615928Y-89609666D01*
X142615928Y-89300142D01*
X142544500Y-89176333D01*
X142473071Y-89114428D01*
X142330214Y-89052523D01*
X142187357Y-89052523D01*
X141973071Y-89114428D01*
X141115928Y-89857285D01*
X141115928Y-89052523D01*
X142473071Y-88557285D02*
X142544500Y-88495380D01*
X142615928Y-88371571D01*
X142615928Y-88062047D01*
X142544500Y-87938238D01*
X142473071Y-87876333D01*
X142330214Y-87814428D01*
X142187357Y-87814428D01*
X141973071Y-87876333D01*
X141115928Y-88619190D01*
X141115928Y-87814428D01*
D11*
%TO.C,P18*%
X163449000Y-97917000D03*
%TD*%
D12*
%TO.C,R14*%
X149098000Y-95885000D03*
X149098000Y-97885000D03*
%TD*%
%TO.C,R16*%
X165100000Y-95901000D03*
X165100000Y-97901000D03*
%TD*%
D13*
%TO.C,R6*%
X154432000Y-88612000D03*
X154432000Y-86612000D03*
%TD*%
D11*
%TO.C,J1*%
X164851000Y-79502000D03*
D14*
X163581000Y-79502000D03*
X162311000Y-79502000D03*
X161041000Y-79502000D03*
X159771000Y-79502000D03*
X158501000Y-79502000D03*
X157231000Y-79502000D03*
X155961000Y-79502000D03*
%TD*%
D11*
%TO.C,P8*%
X150241000Y-77724000D03*
%TD*%
D13*
%TO.C,R1*%
X165100000Y-88612000D03*
X165100000Y-86612000D03*
%TD*%
D11*
%TO.C,P13*%
X147447000Y-97917000D03*
%TD*%
%TO.C,J2*%
X153426000Y-79502000D03*
D14*
X152156000Y-79502000D03*
X150886000Y-79502000D03*
X149616000Y-79502000D03*
X148346000Y-79502000D03*
X147076000Y-79502000D03*
X145806000Y-79502000D03*
X144536000Y-79502000D03*
X143266000Y-79502000D03*
X141996000Y-79502000D03*
%TD*%
D12*
%TO.C,R18*%
X154432000Y-91329000D03*
X154432000Y-93329000D03*
%TD*%
D13*
%TO.C,R12*%
X149098000Y-83915000D03*
X149098000Y-81915000D03*
%TD*%
D11*
%TO.C,P17*%
X158115000Y-92583000D03*
%TD*%
%TO.C,P2*%
X158115000Y-87249000D03*
%TD*%
D12*
%TO.C,R5*%
X159766000Y-91329000D03*
X159766000Y-93329000D03*
%TD*%
D13*
%TO.C,R3*%
X159766000Y-88612000D03*
X159766000Y-86612000D03*
%TD*%
D11*
%TO.C,J4*%
X155834000Y-100330000D03*
D14*
X154564000Y-100330000D03*
X153294000Y-100330000D03*
X152024000Y-100330000D03*
X150754000Y-100330000D03*
X149484000Y-100330000D03*
X148214000Y-100330000D03*
X146944000Y-100330000D03*
%TD*%
D13*
%TO.C,R2*%
X165100000Y-83931000D03*
X165100000Y-81931000D03*
%TD*%
D11*
%TO.C,P4*%
X160909000Y-77724000D03*
%TD*%
%TO.C,J3*%
X164592000Y-100330000D03*
D14*
X163322000Y-100330000D03*
X162052000Y-100330000D03*
X160782000Y-100330000D03*
X159512000Y-100330000D03*
X158242000Y-100330000D03*
%TD*%
D11*
%TO.C,P0*%
X163449000Y-87249000D03*
%TD*%
D12*
%TO.C,R17*%
X159766000Y-95885000D03*
X159766000Y-97885000D03*
%TD*%
D11*
%TO.C,P11*%
X147447000Y-81915000D03*
%TD*%
%TO.C,P6*%
X152781000Y-81915000D03*
%TD*%
D12*
%TO.C,R15*%
X165100000Y-91329000D03*
X165100000Y-93329000D03*
%TD*%
%TO.C,R19*%
X154432000Y-95901000D03*
X154432000Y-97901000D03*
%TD*%
%TO.C,R13*%
X149098000Y-91345000D03*
X149098000Y-93345000D03*
%TD*%
D11*
%TO.C,P7*%
X155702000Y-77724000D03*
%TD*%
D13*
%TO.C,R11*%
X149098000Y-88612000D03*
X149098000Y-86612000D03*
%TD*%
D11*
%TO.C,P15*%
X152781000Y-92583000D03*
%TD*%
D13*
%TO.C,R7*%
X154432000Y-83947000D03*
X154432000Y-81947000D03*
%TD*%
D11*
%TO.C,P12*%
X147447000Y-92583000D03*
%TD*%
%TO.C,P14*%
X152781000Y-97917000D03*
%TD*%
%TO.C,P5*%
X152781000Y-87249000D03*
%TD*%
%TO.C,P1*%
X163449000Y-81915000D03*
%TD*%
%TO.C,P16*%
X158115000Y-97917000D03*
%TD*%
%TO.C,P19*%
X163449000Y-92583000D03*
%TD*%
%TO.C,P3*%
X158115000Y-81915000D03*
%TD*%
D13*
%TO.C,R4*%
X159766000Y-83947000D03*
X159766000Y-81947000D03*
%TD*%
D11*
%TO.C,P10*%
X147447000Y-87249000D03*
%TD*%
%TO.C,P9*%
X145161000Y-77724000D03*
%TD*%
M02*
